<?xml version="1.0" encoding="iso-8859-1"?>
<!-- Generator: Adobe Illustrator 19.0.0, SVG Export Plug-In . SVG Version: 6.00 Build 0)  -->
<svg xmlns="http://www.w3.org/2000/svg" xmlns:xlink="http://www.w3.org/1999/xlink" version="1.1" id="Capa_1" x="0px" y="0px" viewBox="0 0 512 512" style="enable-background:new 0 0 512 512;" xml:space="preserve" width="512" height="512">
<g>
	<rect y="376.476" width="512" height="60.048"/>
	<polygon points="188.493,222.876 188.493,257.381 226.92,236.414 226.92,201.908  "/>
	<polygon points="173.493,196.885 210.604,176.635 173.493,156.386 136.382,176.635  "/>
	<polygon points="158.493,222.876 120.066,201.908 120.066,236.414 158.493,257.381  "/>
	<path d="M481.976,75.476H30.024v271h451.952V75.476z M256.92,254.219l-83.427,45.522l-83.427-45.522v-86.487l83.427-45.522   l83.427,45.522V254.219z M421.934,286.024H286.956v-30h134.978V286.024z M421.934,225.976H286.956v-30h134.978V225.976z    M421.934,165.928H286.956v-30h134.978V165.928z"/>
</g>















</svg>
