<svg height="512pt" viewBox="0 0 512 512" width="512pt" xmlns="http://www.w3.org/2000/svg"><path d="m256 512c140.609375 0 256-115.390625 256-256s-115.390625-256-256-256-256 115.390625-256 256 115.390625 256 256 256zm90-397.210938 70.605469 70.605469-21.210938 21.210938-49.394531-49.394531-49.394531 49.394531-21.210938-21.210938zm-180 0 70.605469 70.605469-21.210938 21.210938-49.394531-49.394531-49.394531 49.394531-21.210938-21.210938zm-90 126.210938h60v30h-13.484375c7.574219 67.316406 64.175781 120 133.484375 120s125.910156-52.683594 133.484375-120h-13.484375v-30h60v30h-15.761719c-7.613281 83.96875-78.320312 150-164.238281 150s-156.628906-66.03125-164.238281-150h-15.761719zm0 0"/></svg>